
<svg viewBox="0 0 96 20" version="1.1" xmlns="http://www.w3.org/2000/svg" xmlns:xlink="http://www.w3.org/1999/xlink">
    <defs>
        <linearGradient id="grad1" x1="0%" y1="0%" x2="0%" y2="100%">
            <stop offset="0%" style="stop-color:#FF7867;stop-opacity:1" />
            <stop offset="100%" style="stop-color:#FF6868;stop-opacity:1" />
        </linearGradient>
    </defs>
    <g id="Page-1" stroke="none" stroke-width="1" fill="none" fill-rule="evenodd">
        <g id="splash-logo-white" transform="translate(0.000000, -65.000000)" fill="url(#grad1)" fill-rule="nonzero">
            <g id="Rectangle" transform="translate(0.000000, 0.563492)">
                <g id="Mask" transform="translate(0.000000, 0.436508)">
                    <g id="Type" transform="translate(0.000000, 64.000000)">
                        <g id="Mask">
                            <path d="M18.7022165,16.0179063 C18.3084856,16.6969697 17.7178893,17.2561983 16.9698006,17.7355372 C16.221712,18.214876 15.316131,18.5743802 14.2530576,18.8140496 C13.1899843,19.053719 11.9694186,19.1735537 10.6307336,19.1735537 L0,19.1735537 L0,18.8939394 C0.629969398,18.8539945 1.06307336,18.7741047 1.37805806,18.65427 C1.65366967,18.5344353 1.92928128,18.3347107 2.12614672,18.0950413 C2.32301215,17.815427 2.44113142,17.5358127 2.4805045,17.2162534 C2.4805045,17.0564738 2.51987759,16.8966942 2.51987759,16.7369146 C2.51987759,16.577135 2.55925068,16.4173554 2.55925068,16.177686 C2.63799685,16.0179063 2.63799685,15.738292 2.63799685,15.4586777 C2.63799685,15.1391185 2.63799685,14.7396694 2.63799685,14.2603306 L2.63799685,4.95316804 L2.63799685,3.315427 C2.63799685,2.71625344 2.59862376,2.2768595 2.51987759,1.95730028 C2.44113142,1.63774105 2.32301215,1.35812672 2.12614672,1.0785124 C1.96865437,0.838842975 1.69304276,0.639118457 1.41743114,0.519283747 C1.14181953,0.439393939 0.669342485,0.359504132 0,0.279614325 L0,0 L7.44151351,0 C8.22897526,0 8.93769083,0 9.56766022,0.0399449036 C10.1976296,0.0399449036 10.7488528,0.0798898072 11.260703,0.119834711 C11.7725531,0.159779614 12.2450302,0.199724518 12.6781341,0.279614325 C13.1112381,0.359504132 13.544342,0.439393939 13.9380729,0.519283747 C15.1980117,0.798898072 16.221712,1.31818182 16.9698006,2.03719008 C17.7178893,2.75619835 18.0722471,3.59504132 18.0722471,4.5137741 C18.0722471,5.07300275 17.9541278,5.5922865 17.6785162,6.11157025 C17.4029046,6.59090909 17.0485468,7.03030303 16.6154429,7.30991736 C16.0248465,7.70936639 15.3555041,8.02892562 14.5286692,8.18870523 C13.7412075,8.38842975 12.6781341,8.50826446 11.4181953,8.54820937 C11.8906724,8.58815427 12.3237763,8.66804408 12.638761,8.70798898 C12.9537457,8.74793388 13.2293573,8.78787879 13.504969,8.8677686 C13.7412075,8.9077135 14.0168191,8.9476584 14.2136845,9.02754821 C14.4499231,9.06749311 14.6861616,9.14738292 15.0011463,9.22727273 C16.3792043,9.54683196 17.4029046,10.1060606 18.1903664,10.9449036 C18.938455,11.7438017 19.3321859,12.7024793 19.3321859,13.8209366 C19.2928128,14.5798898 19.0959474,15.338843 18.7022165,16.0179063 Z M12.4812687,2.87603306 C12.4025225,2.43663912 12.2844033,2.07713499 12.0875378,1.71763085 C11.8119262,1.23829201 11.4575684,0.878787879 10.9850914,0.639118457 C10.5126143,0.439393939 9.80389875,0.319559229 8.89831774,0.319559229 L8.22897526,0.319559229 L8.22897526,8.42837466 L8.97706391,8.42837466 C9.60703331,8.42837466 10.0795104,8.38842975 10.4732412,8.30853994 C10.827599,8.22865014 11.1425837,8.10881543 11.3788222,7.94903581 C11.7725531,7.66942149 12.0481647,7.23002755 12.2844033,6.63085399 C12.5206418,5.99173554 12.599388,5.27272727 12.599388,4.39393939 C12.599388,3.79476584 12.5600149,3.315427 12.4812687,2.87603306 Z M12.8356265,10.5853994 C12.638761,10.1060606 12.3237763,9.70661157 11.8906724,9.38705234 C11.5756877,9.14738292 11.2213299,8.98760331 10.827599,8.9077135 C10.4338681,8.82782369 9.88264492,8.78787879 9.13455626,8.78787879 L8.26834834,8.78787879 L8.26834834,15.7782369 C8.26834834,16.4173554 8.26834834,16.9366391 8.30772143,17.3360882 C8.34709452,17.7355372 8.42584069,18.0550964 8.54395995,18.2548209 C8.66207922,18.4944904 8.85894465,18.6143251 9.09518318,18.6942149 C9.3314217,18.7741047 9.6464064,18.8140496 10.0007642,18.8140496 C11.1425837,18.8140496 12.0087916,18.4146006 12.5206418,17.6157025 C13.0324919,16.8168044 13.3081035,15.5385675 13.3081035,13.8209366 C13.3474766,12.5027548 13.1506112,11.4242424 12.8356265,10.5853994 Z" id="Shape"></path>
                            <path d="M33.2431768,8.67723922 C32.8104254,9.15434443 32.2989919,9.39289703 31.6695353,9.39289703 C30.9220556,9.39289703 30.33194,9.07482689 29.8991886,8.43868662 L29.5451193,7.92182265 C29.269732,7.52423498 28.9943447,7.36519991 28.6796164,7.36519991 C28.3255471,7.36519991 28.0501598,7.56399375 27.8141136,7.96158142 C27.6960905,8.16037525 27.6174084,8.35916909 27.5387263,8.51820415 C27.4600443,8.71699799 27.4207032,8.95555059 27.3813622,9.23386196 C27.3420211,9.51217333 27.3026801,9.909761 27.3026801,10.3073487 C27.3026801,10.7446951 27.3026801,11.2615591 27.3026801,11.8976994 L27.3026801,15.4362296 C27.3026801,15.8735761 27.3026801,16.231405 27.3026801,16.5494751 C27.3026801,16.8675452 27.3420211,17.1060978 27.3813622,17.3048917 C27.4207032,17.5036855 27.4600443,17.6627206 27.4993853,17.8217556 C27.5387263,17.9410319 27.6174084,18.0603082 27.6960905,18.1795845 C27.8534546,18.3783784 28.0501598,18.5374134 28.3255471,18.616931 C28.6009343,18.6964485 28.9943447,18.775966 29.5451193,18.8157248 L29.5451193,19.1735537 L19.9852471,19.1735537 L19.9852471,18.8157248 C20.5360216,18.775966 20.929432,18.6964485 21.2048193,18.616931 C21.4802065,18.5374134 21.6769117,18.3783784 21.8736169,18.1795845 C22.0309811,17.9807907 22.1096631,17.7024793 22.1883452,17.3446504 C22.2276863,16.9868215 22.2670273,16.3506813 22.2670273,15.4362296 L22.2670273,10.7844539 C22.2670273,10.3471074 22.2670273,9.98927853 22.2276863,9.6712084 C22.2276863,9.35313826 22.1883452,9.07482689 22.1490042,8.87603306 C22.1096631,8.63748046 22.0703221,8.43868662 21.99164,8.27965155 C21.912958,8.12061648 21.8342759,7.96158142 21.7162528,7.80254635 C21.5195476,7.52423498 21.2835014,7.32544114 21.0081141,7.20616484 C20.7327268,7.08688854 20.3393164,7.00737101 19.867224,6.96761224 L19.827883,6.68930087 C20.0245881,6.6495421 20.2212933,6.60978334 20.3786575,6.57002457 C20.5360216,6.5302658 20.6540448,6.49050704 20.7720679,6.45074827 C21.2441603,6.33147197 21.7162528,6.21219567 22.1490042,6.09291937 C22.5817556,5.97364306 22.975166,5.85436676 23.3685763,5.73509046 C23.7619867,5.61581416 24.1553971,5.49653786 24.5881485,5.33750279 C25.0208999,5.17846772 25.4536513,5.01943266 25.9650848,4.86039759 L27.0666339,4.46280992 L27.0666339,8.83627429 C27.5387263,7.40495868 28.1288419,6.33147197 28.8369806,5.57605539 C29.5451193,4.82063882 30.371281,4.46280992 31.3154659,4.46280992 C32.0236046,4.46280992 32.6530612,4.70136252 33.1251537,5.17846772 C33.5972461,5.65557293 33.8726334,6.25195443 33.8726334,6.96761224 C33.8726334,7.64351128 33.6365872,8.23989279 33.2431768,8.67723922 Z" id="Path"></path>
                            <path d="M48.513464,14.7417083 C48.3948698,15.0592032 48.2367442,15.3370113 48.11815,15.5751325 C47.9995558,15.8132537 47.8414302,16.0513749 47.6833046,16.2894961 C47.5251791,16.5276173 47.3275221,16.7657385 47.1298651,17.0435465 C46.4578313,17.8372838 45.6672034,18.4722737 44.7579812,18.8691424 C43.8092277,19.3056979 42.8209428,19.5041322 41.6745322,19.5041322 C40.6071845,19.5041322 39.6188996,19.3056979 38.7096774,18.9485161 C37.8004553,18.5913343 37.0098273,18.075405 36.3377936,17.4007283 C35.6657598,16.7260516 35.1518516,15.9720011 34.7565377,15.0592032 C34.3612237,14.1464053 34.2030981,13.1939205 34.2030981,12.162062 C34.2030981,11.0905166 34.4007551,10.0983449 34.7960691,9.14586014 C35.191383,8.19337535 35.7448226,7.39963802 36.4563878,6.68527443 C37.1679529,5.97091084 37.9981123,5.45498157 38.9073344,5.05811291 C39.8560879,4.66124425 40.8443729,4.46280992 41.951252,4.46280992 C42.9000056,4.46280992 43.7696963,4.62155738 44.5603242,4.89936545 C45.3509522,5.17717351 46.0625174,5.61372904 46.6554883,6.1296583 C47.2484593,6.64558756 47.7623674,7.32026429 48.1576814,8.07431475 C48.5529954,8.82836521 48.7901838,9.70147626 48.908778,10.6142742 L39.4212426,10.6142742 C39.4212426,14.1860922 41.0420299,15.9720011 44.1650103,15.9720011 C45.3509522,15.9720011 46.3787685,15.6941931 47.2089279,15.0988901 C47.5251791,14.9004557 47.8018988,14.6623345 47.9600244,14.4639002 C48.1576814,14.225779 48.3948698,13.9082841 48.6715896,13.4717286 L48.908778,13.5907892 C48.7901838,14.0273447 48.6320582,14.4242133 48.513464,14.7417083 Z M43.8092277,9.46335507 C43.8092277,9.22523387 43.8092277,9.02679954 43.8092277,8.82836521 C43.8092277,8.62993088 43.8092277,8.47118341 43.7696963,8.31243594 C43.7696963,8.15368848 43.7301649,7.99494101 43.7301649,7.79650668 C43.6511021,6.76464816 43.4534451,6.0105977 43.1767253,5.53435531 C42.8604742,5.05811291 42.4256288,4.81999171 41.8721892,4.81999171 C41.0815613,4.81999171 40.4885903,5.29623411 40.0537449,6.20903203 C39.658431,7.16151682 39.460774,8.51087028 39.460774,10.2570924 L43.8487591,10.2570924 C43.8092277,9.97928433 43.8092277,9.70147626 43.8092277,9.46335507 Z" id="Shape"></path>
                            <path d="M64.4644767,14.7417083 C64.3465167,15.0592032 64.1892367,15.3370113 64.0712767,15.5751325 C63.9533167,15.8132537 63.7960367,16.0513749 63.6387567,16.2894961 C63.4814767,16.5276173 63.2848767,16.7657385 63.0882767,17.0435465 C62.4198367,17.8372838 61.6334367,18.4722737 60.7290767,18.8691424 C59.7853967,19.3056979 58.8023968,19.5041322 57.6621168,19.5041322 C56.6004768,19.5041322 55.6174768,19.3056979 54.7131168,18.9485161 C53.8087568,18.5913343 53.0223568,18.075405 52.3539168,17.4007283 C51.6854768,16.7260516 51.1743168,15.9720011 50.7811168,15.0592032 C50.3879168,14.1464053 50.2306368,13.1939205 50.2306368,12.162062 C50.2306368,11.0905166 50.4272368,10.0983449 50.8204368,9.14586014 C51.2136368,8.19337535 51.7641168,7.39963802 52.4718768,6.68527443 C53.1796368,5.97091084 54.0053568,5.45498157 54.9097168,5.05811291 C55.8533968,4.66124425 56.8363968,4.46280992 57.9373568,4.46280992 C58.8810368,4.46280992 59.7460767,4.62155738 60.5324767,4.89936545 C61.3188767,5.17717351 62.0266367,5.61372904 62.6164367,6.1296583 C63.2062367,6.64558756 63.7173967,7.32026429 64.1105967,8.07431475 C64.5037967,8.82836521 64.7397167,9.70147626 64.8576767,10.6142742 L55.4995168,10.6142742 C55.4995168,14.1860922 57.1116368,15.9720011 60.2179167,15.9720011 C61.3975167,15.9720011 62.4198367,15.6941931 63.2455567,15.0988901 C63.5601167,14.9004557 63.8353567,14.6623345 63.9926367,14.4639002 C64.1892367,14.225779 64.4251567,13.9082841 64.7003967,13.4717286 L64.9363167,13.5907892 C64.7397167,14.0273447 64.6217567,14.4242133 64.4644767,14.7417083 Z M59.7853967,9.46335507 C59.7853967,9.22523387 59.7853967,9.02679954 59.7853967,8.82836521 C59.7853967,8.62993088 59.7853967,8.47118341 59.7460767,8.31243594 C59.7460767,8.15368848 59.7067567,7.99494101 59.7067567,7.79650668 C59.6281167,6.76464816 59.4315167,6.0105977 59.1562767,5.53435531 C58.8417168,5.05811291 58.4091968,4.81999171 57.8587168,4.81999171 C57.0723168,4.81999171 56.4825168,5.29623411 56.0499968,6.20903203 C55.6567968,7.16151682 55.4601968,8.51087028 55.4601968,10.2570924 L59.8247167,10.2570924 C59.7853967,9.97928433 59.7853967,9.70147626 59.7853967,9.46335507 Z" id="Shape"></path>
                            <path d="M78.2679591,20 C78.0279373,19.8401783 77.8279192,19.7203121 77.6679047,19.6803567 C77.5078902,19.6004458 77.3478757,19.5604904 77.1878612,19.520535 C77.0278467,19.4805796 76.8278286,19.4406241 76.5878069,19.4406241 C76.3477851,19.4406241 76.0277561,19.4406241 75.7077271,19.4406241 L65.2667814,19.4406241 L74.1075822,5.41627237 C73.707546,5.45622779 73.387517,5.53613862 73.1474952,5.61604946 C72.8674699,5.6959603 72.6274481,5.77587113 72.3474228,5.85578197 C72.107401,5.93569281 71.8273757,6.05555906 71.5473503,6.21538073 C71.2673249,6.33524699 70.947296,6.53502408 70.5472597,6.73480117 C69.5071655,7.29417702 68.6270858,7.93346371 67.9870278,8.5727504 C67.3069662,9.2120371 66.7069119,10.0511009 66.1868648,11.0100309 L65.9068394,10.9700755 L67.8270133,4.29752066 C67.9070206,4.45734233 68.0270314,4.61716401 68.1070387,4.69707484 C68.1870459,4.8169411 68.3070568,4.89685193 68.4670713,4.93680735 C68.5870822,4.97676277 68.7871003,5.01671819 68.9871184,5.05667361 C69.1871365,5.05667361 69.4271583,5.09662902 69.7471872,5.09662902 L80.188133,5.09662902 L71.3873358,19.1209808 C71.787372,19.1209808 72.1474047,19.0810254 72.42743,19.0011145 C72.7074554,18.9611591 72.9874808,18.8812483 73.2675061,18.8013375 C73.5075279,18.7214266 73.7875532,18.6015604 74.0675786,18.4417387 C74.3476039,18.281917 74.6676329,18.1220953 75.0276655,17.8823628 C75.507709,17.5627195 75.9877525,17.2430761 76.467796,16.8834774 C76.9078359,16.5238786 77.3478757,16.1243244 77.7479119,15.6848148 C77.9879337,15.4051269 78.2279554,15.1653944 78.4279735,14.9256619 C78.6279917,14.6859294 78.8280098,14.4461969 78.9880243,14.2064644 C79.1880424,13.9667319 79.3480569,13.6870439 79.548075,13.3674006 C79.7480931,13.0477572 79.9481112,12.6881585 80.188133,12.2886043 L80.4681583,12.3685151 L78.2679591,20 Z" id="Path"></path>
                            <path d="M95.4963506,14.7417083 C95.3704382,15.0592032 95.2025551,15.3370113 95.0766427,15.5751325 C94.9507303,15.8132537 94.7828472,16.0513749 94.6149641,16.2894961 C94.4470809,16.5276173 94.237227,16.7657385 94.0273731,17.0435465 C93.3138697,17.8372838 92.474454,18.4722737 91.5091259,18.8691424 C90.501827,19.3056979 89.4525574,19.5041322 88.2354046,19.5041322 C87.1021933,19.5041322 86.0529237,19.3056979 85.0875956,18.9485161 C84.1222675,18.5913343 83.2828518,18.075405 82.5693484,17.4007283 C81.8558451,16.7260516 81.3102249,15.9720011 80.890517,15.0592032 C80.4708091,14.1464053 80.302926,13.1939205 80.302926,12.162062 C80.302926,11.0905166 80.5127799,10.0983449 80.9324878,9.14586014 C81.3521956,8.19337535 81.9397866,7.39963802 82.6952608,6.68527443 C83.4507349,5.97091084 84.3321215,5.45498157 85.2974495,5.05811291 C86.3047484,4.66124425 87.3540181,4.46280992 88.5292001,4.46280992 C89.5364989,4.46280992 90.4598562,4.62155738 91.299272,4.89936545 C92.1386877,5.17717351 92.8941618,5.61372904 93.5237236,6.1296583 C94.1532854,6.64558756 94.6989056,7.32026429 95.1186135,8.07431475 C95.5383214,8.82836521 95.7901461,9.70147626 95.9160584,10.6142742 L85.9270113,10.6142742 C85.9270113,14.1860922 87.6478136,15.9720011 90.9635057,15.9720011 C92.2226292,15.9720011 93.3138697,15.6941931 94.1952562,15.0988901 C94.5310225,14.9004557 94.824818,14.6623345 94.9927011,14.4639002 C95.2025551,14.225779 95.4543798,13.9082841 95.7481753,13.4717286 L96,13.5907892 C95.7901461,14.0273447 95.6222629,14.4242133 95.4963506,14.7417083 Z M90.4986459,9.41942708 C90.4986459,9.18257529 90.4986459,8.9851988 90.4986459,8.7878223 C90.4986459,8.59044581 90.4986459,8.43254462 90.4571437,8.27464342 C90.4571437,8.11674223 90.4156414,7.95884104 90.4156414,7.76146454 C90.3326369,6.73510678 90.1251256,5.98507611 89.8346099,5.51137253 C89.5025919,5.03766895 89.0460671,4.80081716 88.4650356,4.80081716 C87.6349905,4.80081716 87.0124567,5.27452074 86.555932,6.18245261 C86.1409094,7.12985977 85.9333982,8.47201992 85.9333982,10.208933 L90.5401482,10.208933 C90.4986459,9.93260596 90.4986459,9.65627887 90.4986459,9.41942708 Z" id="Shape"></path>
                        </g>
                    </g>
                </g>
            </g>
        </g>
    </g>
</svg>