<svg viewBox="0 0 96 20" xmlns="http://www.w3.org/2000/svg" xmlns:xlink="http://www.w3.org/1999/xlink"><linearGradient id="a" x1="0%" x2="0%" y1="0%" y2="100%"><stop offset="0" stop-color="#f96"/><stop offset="1" stop-color="#ff8068"/></linearGradient><g fill="url(#a)"><path d="m18.7022165 16.0179063c-.3937309.6790634-.9843272 1.238292-1.7324159 1.7176309-.7480886.4793388-1.6536696.838843-2.716743 1.0785124-1.0630733.2396694-2.283639.3595041-3.622324.3595041h-10.6307336v-.2796143c.6299694-.0399449 1.06307336-.1198347 1.37805806-.2396694.27561161-.1198347.55122322-.3195593.74808866-.5592287.19686543-.2796143.3149847-.5592286.35435778-.8787879 0-.1597796.03937309-.3195592.03937309-.4793388s.03937309-.3195592.03937309-.5592286c.07874617-.1597797.07874617-.439394.07874617-.7190083 0-.3195592 0-.7190083 0-1.1983471v-9.30716256-1.63774104c0-.59917356-.03937309-1.0385675-.11811926-1.35812672-.07874617-.31955923-.19686544-.59917356-.39373087-.87878788-.15749235-.23966942-.43310396-.43939394-.70871558-.55922865-.27561161-.07988981-.74808865-.15977962-1.41743114-.23966942v-.27961433h7.44151351c.78746175 0 1.49617732 0 2.12614671.0399449.62996938 0 1.18119258.03994491 1.69304278.07988981.5118501.0399449.9843272.07988981 1.4174311.15977962.433104.0798898.8662079.15977961 1.2599388.23966942 1.2599388.27961432 2.2836391.79889807 3.0317277 1.51790633.7480887.71900827 1.1024465 1.55785124 1.1024465 2.47658402 0 .55922865-.1181193 1.0785124-.3937309 1.59779615-.2756116.47933884-.6299694.91873278-1.0630733 1.19834711-.5905964.39944903-1.2599388.71900826-2.0867737.87878787-.7874617.19972452-1.8505351.31955923-3.1104739.35950414.4724771.0399449.905581.11983471 1.2205657.15977961s.5905963.07988981.866208.15977962c.2362385.0399449.5118501.0798898.7087155.15977961.2362386.0399449.4724771.11983471.7874618.19972452 1.378058.31955923 2.4017583.87878787 3.1892201 1.71763087.7480886.7988981 1.1418195 1.7575757 1.1418195 2.876033-.0393731.7589532-.2362385 1.5179064-.6299694 2.1969697zm-6.2209478-13.14187324c-.0787462-.43939394-.1968654-.79889807-.3937309-1.15840221-.2756116-.47933884-.6299694-.83884297-1.1024464-1.07851239-.4724771-.19972452-1.18119265-.31955923-2.08677366-.31955923h-.66934248v8.10881543h.74808865c.6299694 0 1.10244649-.03994491 1.49617729-.11983472.3543578-.0798898.6693425-.19972451.905581-.35950413.3937309-.27961432.6693425-.71900826.9055811-1.31818182.2362385-.63911845.3149847-1.35812672.3149847-2.2369146 0-.59917355-.0393731-1.07851239-.1181193-1.51790633zm.3543578 7.70936634c-.1968655-.4793388-.5118502-.87878783-.9449541-1.19834706-.3149847-.23966942-.6693425-.39944903-1.0630734-.47933884s-.94495408-.11983471-1.69304274-.11983471h-.86620792v6.99035811c0 .6391185 0 1.1584022.03937309 1.5578513.03937309.399449.11811926.7190082.23623852.9187327.11811927.2396695.3149847.3595042.55122323.439394.23623852.0798898.55122322.1198347.90558102.1198347 1.1418195 0 2.0080274-.399449 2.5198776-1.1983471.5118501-.7988981.7874617-2.077135.7874617-3.7947659.0393731-1.3181818-.1574923-2.3966942-.472477-3.2355372z"/><path d="m33.2431768 8.67723922c-.4327514.47710521-.9441849.71565781-1.5736415.71565781-.7474797 0-1.3375953-.31807014-1.7703467-.95421041l-.3540693-.51686397c-.2753873-.39758767-.5507746-.55662274-.8655029-.55662274-.3540693 0-.6294566.19879384-.8655028.59638151-.1180231.19879383-.1967052.39758767-.2753873.55662273-.078682.19879384-.1180231.43734644-.1573641.71565781-.0393411.27831137-.0786821.67589904-.0786821 1.07348674v1.5903507 3.5385302 1.1132455c0 .3180701.039341.5566227.0786821.7554166.039341.1987938.0786821.3578289.1180231.5168639.039341.1192763.1180231.2385526.1967052.3578289.1573641.1987939.3540693.3578289.6294566.4373465.2753872.0795175.6687976.159035 1.2195722.1987938v.3578289h-9.5598722v-.3578289c.5507745-.0397588.9441849-.1192763 1.2195722-.1987938.2753872-.0795176.4720924-.2385526.6687976-.4373465.1573642-.1987938.2360462-.4771052.3147283-.8349341.0393411-.3578289.0786821-.9939691.0786821-1.9084208v-4.6517757c0-.4373465 0-.79517537-.039341-1.1132455 0-.31807014-.0393411-.59638151-.0786821-.79517534-.0393411-.2385526-.0786821-.43734644-.1573642-.59638151-.078682-.15903507-.1573641-.31807013-.2753872-.4771052-.1967052-.27831137-.4327514-.47710521-.7081387-.59638151s-.6687977-.19879383-1.1408901-.2385526l-.039341-.27831137c.1967051-.03975877.3934103-.07951753.5507745-.1192763.1573641-.03975877.2753873-.07951753.3934104-.1192763.4720924-.1192763.9441849-.2385526 1.3769363-.3578289.4327514-.11927631.8261618-.23855261 1.2195721-.35782891.3934104-.1192763.7868208-.2385526 1.2195722-.39758767s.8655028-.31807013 1.3769363-.4771052l1.1015491-.39758767v4.37346437c.4720924-1.43131561 1.062208-2.50480232 1.7703467-3.2602189.7081387-.75541657 1.5343004-1.11324547 2.4784853-1.11324547.7081387 0 1.3375953.2385526 1.8096878.7156578.4720924.47710521.7474797 1.07348671.7474797 1.78914452 0 .67589904-.2360462 1.27228055-.6294566 1.70962698z"/><path d="m48.513464 14.7417083c-.1185942.3174949-.2767198.595303-.395314.8334242s-.2767198.4762424-.4348454.7143636c-.1581255.2381212-.3557825.4762424-.5534395.7540504-.6720338.7937373-1.4626617 1.4287272-2.3718839 1.8255959-.9487535.4365555-1.9370384.6349898-3.083449.6349898-1.0673477 0-2.0556326-.1984343-2.9648548-.5556161-.9092221-.3571818-1.6998501-.8731111-2.3718838-1.5477878-.6720338-.6746767-1.185942-1.4287272-1.5812559-2.3415251-.395314-.9127979-.5534396-1.8652827-.5534396-2.8971412 0-1.0715454.197657-2.0637171.592971-3.01620186.3953139-.95248479.9487535-1.74622212 1.6603187-2.46058571.7115651-.71436359 1.5417245-1.23029286 2.4509466-1.62716152.9487535-.39686866 1.9370385-.59530299 3.0439176-.59530299.9487536 0 1.8184443.15874746 2.6090722.43655553.790628.27780806 1.5021932.71436359 2.0951641 1.23029285.592971.51592926 1.1068791 1.19060599 1.5021931 1.94465645s.6325024 1.62716151.7510966 2.53995945h-9.4875354c0 3.571818 1.6207873 5.3577269 4.7437677 5.3577269 1.1859419 0 2.2137582-.277808 3.0439176-.873111.3162512-.1984344.5929709-.4365556.7510965-.6349899.197657-.2381212.4348454-.5556161.7115652-.9921716l.2371884.1190606c-.1185942.4365555-.2767198.8334241-.395314 1.1509191zm-4.7042363-5.27835323c0-.2381212 0-.43655553 0-.63498986s0-.3571818-.0395314-.51592927c0-.15874746-.0395314-.31749493-.0395314-.51592926-.0790628-1.03185852-.2767198-1.78590898-.5534396-2.26215137-.3162511-.4762424-.7510965-.7143636-1.3045361-.7143636-.7906279 0-1.3835989.4762424-1.8184443 1.38904032-.3953139.95248479-.5929709 2.30183825-.5929709 4.04806037h4.3879851c-.0395314-.27780807-.0395314-.55561614-.0395314-.79373733z"/><path d="m64.4644767 14.7417083c-.11796.3174949-.27524.595303-.3932.8334242s-.27524.4762424-.43252.7143636-.35388.4762424-.55048.7540504c-.66844.7937373-1.45484 1.4287272-2.3592 1.8255959-.94368.4365555-1.9266799.6349898-3.0669599.6349898-1.06164 0-2.04464-.1984343-2.949-.5556161s-1.69076-.8731111-2.3592-1.5477878-1.1796-1.4287272-1.5728-2.3415251-.55048-1.8652827-.55048-2.8971412c0-1.0715454.1966-2.0637171.5898-3.01620186.3932-.95248479.94368-1.74622212 1.65144-2.46058571s1.53348-1.23029286 2.43784-1.62716152c.94368-.39686866 1.92668-.59530299 3.02764-.59530299.94368 0 1.8087199.15874746 2.5951199.43655553.7864.27780806 1.49416.71436359 2.08396 1.23029285s1.10096 1.19060599 1.49416 1.94465645.62912 1.62716151.74708 2.53995945h-9.3581599c0 3.571818 1.61212 5.3577269 4.7183999 5.3577269 1.1796 0 2.20192-.277808 3.02764-.873111.31456-.1984344.5898-.4365556.74708-.6349899.1966-.2381212.43252-.5556161.70776-.9921716l.23592.1190606c-.1966.4365555-.31456.8334241-.47184 1.1509191zm-4.67908-5.27835323c0-.2381212 0-.43655553 0-.63498986s0-.3571818-.03932-.51592927c0-.15874746-.03932-.31749493-.03932-.51592926-.07864-1.03185852-.27524-1.78590898-.55048-2.26215137-.3145599-.4762424-.7470799-.7143636-1.2975599-.7143636-.7864 0-1.3762.4762424-1.80872 1.38904032-.3932.95248479-.5898 2.30183825-.5898 4.04806037h4.3645199c-.03932-.27780807-.03932-.55561614-.03932-.79373733z"/><path d="m78.2679591 20c-.2400218-.1598217-.4400399-.2796879-.6000544-.3196433-.1600145-.0799109-.320029-.1198663-.4800435-.1598217s-.3600326-.0799109-.6000543-.0799109c-.2400218 0-.5600508 0-.8800798 0h-10.4409457l8.8408008-14.02435173c-.4000362.03995542-.7200652.11986625-.960087.19977709-.2800253.07991084-.5200471.15982167-.8000724.23973251-.2400218.07991084-.5200471.19977709-.8000725.35959876-.2800254.11986626-.6000543.31964335-1.0000906.51942044-1.0400942.55937585-1.9201739 1.19866254-2.5602319 1.83794923-.6800616.6392867-1.2801159 1.4783505-1.800163 2.4372805l-.2800254-.0399554 1.9201739-6.67255484c.0800073.15982167.2000181.31964335.2800254.39955418.0800072.11986626.2000181.19977709.3600326.23973251.1200109.03995542.320029.07991084.5200471.11986626.2000181 0 .4400399.03995541.7600688.03995541h10.4409458l-8.8007972 14.02435178c.4000362 0 .7600689-.0399554 1.0400942-.1198663.2800254-.0399554.5600508-.1198662.8400761-.199777.2400218-.0799109.5200471-.1997771.8000725-.3595988.2800253-.1598217.6000543-.3196434.9600869-.5593759.4800435-.3196433.960087-.6392867 1.4401305-.9988854.4400399-.3595988.8800797-.759153 1.2801159-1.1986626.2400218-.2796879.4800435-.5194204.6800616-.7591529.2000182-.2397325.4000363-.479465.5600508-.7191975.2000181-.2397325.3600326-.5194205.5600507-.8390638.2000181-.3196434.4000362-.6792421.640058-1.0787963l.2800253.0799108z"/><path d="m95.4963506 14.7417083c-.1259124.3174949-.2937955.595303-.4197079.8334242s-.2937955.4762424-.4616786.7143636c-.1678832.2381212-.3777371.4762424-.587591.7540504-.7135034.7937373-1.5529191 1.4287272-2.5182472 1.8255959-1.0072989.4365555-2.0565685.6349898-3.2737213.6349898-1.1332113 0-2.1824809-.1984343-3.147809-.5556161s-1.8047438-.8731111-2.5182472-1.5477878c-.7135033-.6746767-1.2591235-1.4287272-1.6788314-2.3415251s-.587591-1.8652827-.587591-2.8971412c0-1.0715454.2098539-2.0637171.6295618-3.01620186.4197078-.95248479 1.0072988-1.74622212 1.762773-2.46058571.7554741-.71436359 1.6368607-1.23029286 2.6021887-1.62716152 1.0072989-.39686866 2.0565686-.59530299 3.2317506-.59530299 1.0072988 0 1.9306561.15874746 2.7700719.43655553.8394157.27780806 1.5948898.71436359 2.2244516 1.23029285s1.175182 1.19060599 1.5948899 1.94465645.6715326 1.62716151.7974449 2.53995945h-9.9890471c0 3.571818 1.7208023 5.3577269 5.0364944 5.3577269 1.2591235 0 2.350364-.277808 3.2317505-.873111.3357663-.1984344.6295618-.4365556.7974449-.6349899.209854-.2381212.4616787-.5556161.7554742-.9921716l.2518247.1190606c-.2098539.4365555-.3777371.8334241-.5036494 1.1509191zm-4.9977047-5.32228122c0-.23685179 0-.43422828 0-.63160478 0-.19737649 0-.35527768-.0415022-.51317888 0-.15790119-.0415023-.31580238-.0415023-.51317888-.0830045-1.02635776-.2905158-1.77638843-.5810315-2.25009201-.332018-.47370358-.7885428-.71055537-1.3695743-.71055537-.8300451 0-1.4525789.47370358-1.9091036 1.38163545-.4150226.94740716-.6225338 2.28956731-.6225338 4.02648039h4.60675c-.0415023-.27632704-.0415023-.55265413-.0415023-.78950592z"/></g></svg>