<svg viewBox="0 0 50 55" xmlns="http://www.w3.org/2000/svg" xmlns:xlink="http://www.w3.org/1999/xlink"><linearGradient id="a" x1="0%" x2="0%" y1="0%" y2="100%"><stop offset="0" stop-color="#f96"/><stop offset="1" stop-color="#ff8068"/></linearGradient><mask id="b"><g fill="#fff"><g transform="translate(1.61987)"><path d="m38.5529158.0327381c3.0669546 3.23015873 5.4427645 7.22420634 6.8142548 11.796627 4.6328294 15.4742063-4.0388769 31.8214286-19.3520518 36.4920635-7.6889849 2.3462301-15.5831534 1.3095238-22.12742982-2.2589286l-2.57019438 4.8452381c7.21382289 4.0813492 16.0043197 5.3144841 24.5464363 2.7063492 16.6846652-5.0962302 26.1231101-22.8948413 21.0799136-39.7549603-1.6306696-5.45634922-4.5788337-10.14880954-8.3909287-13.8263889z"/><ellipse cx="2.796976" cy="48.594246" rx="2.710583" ry="2.739087"/></g><g transform="translate(0 12.331349)"><path d="m46.2311015.05456349c.8531318 3.4811508.9179266 7.20238095.0539957 10.93452381-2.9157667 12.593254-15.3887689 20.406746-27.8509719 17.4603175-6.2526998-1.484127-11.31749463-5.3908731-14.43844495-10.5089286l-3.69330454 2.3134921c3.38012959 5.750992 8.98488121 10.1488095 15.93952479 11.7966269 13.5745141 3.2192461 27.1598273-5.3035714 30.3455724-19.0208333 1.0259179-4.44146825.8315335-8.8829365-.3563715-12.97519841z"/><ellipse cx="2.24622" cy="19.25" rx="2.170626" ry="2.193452"/></g><g transform="translate(5.831533 15.605159)"><path d="m39.838013 6.30753968c-.788337 2.75-2.2138229 5.35813492-4.2872571 7.59523812-7.0086393 7.5406746-18.7473002 7.922619-26.2095032.8402778-3.74730022-3.5575397-5.70194384-8.30456354-5.84233261-13.11706354l-3.47732182.10912699c.06479482 5.34722222 2.20302376 10.66170635 6.37149028 14.61210315 8.13174945 7.7152778 20.91792655 7.311508 28.55291575-.9166666 2.462203-2.6517858 4.0928726-5.8055556 4.8920087-9.12301592z"/><ellipse cx="1.760259" cy="1.822421" rx="1.738661" ry="1.756944"/></g><g transform="translate(14.25486 7.420635)"><path d="m27.8725702 20.0029762c-1.6306696 1.5823413-3.6609071 2.8154762-5.9827214 3.5248016-7.8401728 2.3898809-16.12311014-2.0843254-18.48812094-10.0178572-1.18790497-3.97222219-.6587473-8.06448409 1.14470843-11.4474206l-2.45140389-1.33134921c-2.07343413 3.73214286-2.68898488 8.2827381-1.37149028 12.70238091 2.58099352 8.6319445 11.59827218 13.5208334 20.14038878 10.9126985 2.7645788-.8402778 5.1403888-2.3680556 7.0086393-4.343254z"/><ellipse cx="3.272138" cy="1.505952" rx="1.393089" ry="1.407738"/></g></g></mask><path d="m0 0h50v55h-50z" fill="url(#a)" mask="url(#b)"/></svg>