<?xml version="1.0" encoding="UTF-8"?>
<svg width="547px" height="102px" viewBox="0 0 547 102" version="1.1" xmlns="http://www.w3.org/2000/svg" xmlns:xlink="http://www.w3.org/1999/xlink">
    <!-- Generator: Sketch 53 (72520) - https://sketchapp.com -->
    <title>BREEZE</title>
    <desc>Created with Sketch.</desc>
    <g id="Page-1" stroke="none" stroke-width="1" fill="none" fill-rule="evenodd">
        <path d="M32.472,26.688 L32.472,39.216 L41.688,39.216 C44.088012,39.216 46.0559923,38.6640055 47.592,37.56 C49.1280077,36.4559945 49.896,34.7520115 49.896,32.448 C49.896,30.5279904 49.0800082,29.0880048 47.448,28.128 C45.8159918,27.1679952 43.6560134,26.688 40.968,26.688 L32.472,26.688 Z M32.472,61.248 L32.472,75.072 L42.696,75.072 C45.3840134,75.072 47.5679916,74.472006 49.248,73.272 C50.9280084,72.071994 51.768,70.3200115 51.768,68.016 C51.768,66.6719933 51.4080036,65.5680043 50.688,64.704 C49.9679964,63.8399957 49.0800053,63.1440026 48.024,62.616 C46.9679947,62.0879974 45.840006,61.728001 44.64,61.536 C43.439994,61.343999 42.3120053,61.248 41.256,61.248 L32.472,61.248 Z M67.176,49.008 C69.576012,49.5840029 71.9279885,50.5199935 74.232,51.816 C76.5360115,53.1120065 78.5999909,54.7439902 80.424,56.712 C82.2480091,58.6800098 83.6879947,60.959987 84.744,63.552 C85.8000053,66.144013 86.328,69.0239842 86.328,72.192 C86.328,77.7600278 85.2000113,82.439981 82.944,86.232 C80.6879887,90.024019 77.7120185,93.0959882 74.016,95.448 C70.3199815,97.8000118 66.0960238,99.479995 61.344,100.488 C56.5919762,101.496005 51.720025,102 46.728,102 L0.504,102 L0.504,0.048 L42.408,0.048 C46.5360206,0.048 50.9279767,0.35999688 55.584,0.984 C60.2400233,1.60800312 64.5359803,2.85599064 68.472,4.728 C72.4080197,6.60000936 75.671987,9.335982 78.264,12.936 C80.856013,16.536018 82.152,21.2639707 82.152,27.12 C82.152,32.5920274 80.7840137,37.1039822 78.048,40.656 C75.3119863,44.2080178 71.6880226,46.8479914 67.176,48.576 L67.176,49.008 Z M100.296,0.048 L144.216,0.048 C149.208025,0.048 154.175975,0.55199496 159.12,1.56 C164.064025,2.56800504 168.479981,4.34398728 172.368,6.888 C176.256019,9.43201272 179.399988,12.8399786 181.8,17.112 C184.200012,21.3840214 185.4,26.7359678 185.4,33.168 C185.4,39.4080312 183.864015,44.9039762 180.792,49.656 C177.719985,54.4080238 173.304029,58.079987 167.544,60.672 L193.464,102 L154.008,102 L134.424,65.568 L133.416,65.568 L133.416,102 L100.296,102 L100.296,0.048 Z M133.128,43.104 L139.896,43.104 C141.048006,43.104 142.319993,43.008001 143.712,42.816 C145.104007,42.623999 146.399994,42.2160031 147.6,41.592 C148.800006,40.9679969 149.807996,40.1040055 150.624,39 C151.440004,37.8959945 151.848,36.4320091 151.848,34.608 C151.848,32.7839909 151.512003,31.3440053 150.84,30.288 C150.167997,29.2319947 149.304005,28.4400026 148.248,27.912 C147.191995,27.3839974 146.040006,27.0480007 144.792,26.904 C143.543994,26.7599993 142.392005,26.688 141.336,26.688 L133.128,26.688 L133.128,43.104 Z M203.112,0.048 L273.24,0.048 L273.24,28.56 L235.368,28.56 L235.368,37.344 L270.936,37.344 L270.936,63.984 L235.368,63.984 L235.368,73.488 L275.688,73.488 L275.688,102 L203.112,102 L203.112,0.048 Z M289.944,0.048 L360.072,0.048 L360.072,28.56 L322.2,28.56 L322.2,37.344 L357.768,37.344 L357.768,63.984 L322.2,63.984 L322.2,73.488 L362.52,73.488 L362.52,102 L289.944,102 L289.944,0.048 Z M373.608,73.344 L411.768,28.416 L375.192,28.416 L375.192,0.048 L456.552,0.048 L456.552,24.816 L415.944,72.768 L457.704,72.768 L457.704,102 L373.608,102 L373.608,73.344 Z M473.544,0.048 L543.672,0.048 L543.672,28.56 L505.8,28.56 L505.8,37.344 L541.368,37.344 L541.368,63.984 L505.8,63.984 L505.8,73.488 L546.12,73.488 L546.12,102 L473.544,102 L473.544,0.048 Z" id="BREEZE" fill="#000000" fill-rule="nonzero"></path>
    </g>
</svg>