<?xml version="1.0" standalone="no"?>
<!DOCTYPE svg PUBLIC "-//W3C//DTD SVG 20010904//EN"
 "http://www.w3.org/TR/2001/REC-SVG-20010904/DTD/svg10.dtd">
<svg version="1.0" xmlns="http://www.w3.org/2000/svg"
 width="1024.000000pt" height="1024.000000pt" viewBox="0 0 1024.000000 1024.000000"
 preserveAspectRatio="xMidYMid meet">
<metadata>
Created by potrace 1.11, written by Peter Selinger 2001-2013
</metadata>
<g transform="translate(0.000000,1024.000000) scale(0.100000,-0.100000)"
fill="#000000" stroke="none">
<path d="M0 5120 l0 -5120 5120 0 5120 0 0 5120 0 5120 -5120 0 -5120 0 0
-5120z m7505 3615 c241 -289 420 -567 584 -905 375 -779 510 -1652 386 -2505
-235 -1615 -1369 -2970 -2915 -3485 -310 -103 -615 -170 -950 -207 -213 -23
-657 -23 -868 0 -560 63 -1034 202 -1530 451 -171 86 -238 139 -285 230 -29
57 -32 68 -32 161 0 93 2 105 33 167 73 150 242 233 403 199 30 -6 133 -49
229 -95 504 -241 972 -362 1535 -397 507 -31 1065 53 1571 237 1156 419 2051
1348 2433 2527 77 238 135 504 168 777 22 181 25 654 5 835 -91 824 -408 1562
-944 2198 l-69 82 77 -80 c42 -44 118 -129 169 -190z m-3331 -708 c48 -37 76
-94 76 -154 0 -37 -11 -71 -46 -143 -95 -196 -154 -383 -190 -605 -24 -149
-24 -428 0 -584 67 -438 260 -829 559 -1133 316 -321 693 -516 1152 -595 139
-24 481 -24 620 0 336 58 658 192 905 378 49 37 90 66 90 64 0 -2 -39 -36 -87
-76 -305 -252 -688 -419 -1108 -485 -149 -23 -459 -23 -610 0 -728 112 -1344
548 -1667 1181 -181 354 -257 692 -245 1085 10 343 85 640 231 927 52 100 69
123 117 153 51 32 152 25 203 -13z m3883 -799 c-3 -8 -6 -5 -6 6 -1 11 2 17 5
13 3 -3 4 -12 1 -19z m65 -333 c20 -132 23 -188 23 -465 0 -246 -4 -342 -18
-437 -93 -655 -336 -1228 -733 -1728 -110 -138 -397 -426 -531 -532 -539 -427
-1130 -672 -1828 -755 -132 -15 -583 -15 -710 1 -604 75 -1092 249 -1560 556
-380 250 -725 593 -977 971 -85 128 -106 169 -120 236 -44 210 167 397 376
334 77 -23 124 -63 189 -161 289 -430 616 -747 1033 -1000 354 -215 750 -356
1204 -428 117 -19 176 -22 450 -21 275 0 333 3 455 22 703 110 1327 427 1813
920 428 435 711 958 845 1562 76 339 94 710 52 1045 -8 61 -16 130 -19 155
-11 92 34 -130 56 -275z m-5315 31 c40 -21 90 -75 107 -117 8 -20 20 -97 26
-170 65 -827 497 -1544 1195 -1984 112 -71 338 -182 469 -230 129 -48 369
-108 521 -131 168 -26 550 -26 720 0 458 69 898 261 1251 546 193 156 407 397
550 622 66 103 191 350 214 421 6 20 14 37 16 37 9 0 -10 -58 -63 -190 -322
-805 -1024 -1424 -1865 -1645 -778 -204 -1592 -68 -2259 376 -209 140 -469
377 -622 569 -362 452 -579 1020 -604 1580 -4 106 -2 156 7 184 14 45 71 111
113 132 64 34 161 33 224 0z"/>
</g>
</svg>
